<?xml version="1.0" encoding="utf-8"?>
<!-- Generator: Adobe Illustrator 21.1.0, SVG Export Plug-In . SVG Version: 6.00 Build 0)  -->
<svg version="1.1" id="图层_1" xmlns="http://www.w3.org/2000/svg" xmlns:xlink="http://www.w3.org/1999/xlink" x="0px" y="0px"
	 viewBox="0 0 200 200" style="enable-background:new 0 0 200 200;" xml:space="preserve">
<style type="text/css">
	.st0{fill:#1890FF;}
</style>
<path class="st0" d="M22.2,16.7c-3.1,0-5.6,2.5-5.6,5.6v155.6c0,3.1,2.5,5.6,5.6,5.6c0,0,0,0,0,0h155.6c3.1,0,5.6-2.5,5.6-5.6l0,0
	V22.2c0-3.1-2.5-5.6-5.6-5.6l0,0H22.2z M22.2,0h155.6C190.1,0,200,9.9,200,22.2v155.6c0,12.3-9.9,22.2-22.2,22.2H22.2
	C9.9,200,0,190.1,0,177.8V22.2C0,9.9,9.9,0,22.2,0C22.2,0,22.2,0,22.2,0z"/>
<path class="st0" d="M44.4,108.3c-4.6,0-8.3-3.7-8.3-8.3s3.7-8.3,8.3-8.3h111.1c4.6,0,8.3,3.7,8.3,8.3s-3.7,8.3-8.3,8.3H44.4z"/>
<path class="st0" d="M91.7,44.4c0-4.6,3.7-8.3,8.3-8.3s8.3,3.7,8.3,8.3v111.1c0,4.6-3.7,8.3-8.3,8.3s-8.3-3.7-8.3-8.3V44.4z"/>
</svg>
