<?xml version="1.0" encoding="utf-8"?>
<!-- Generator: Adobe Illustrator 21.1.0, SVG Export Plug-In . SVG Version: 6.00 Build 0)  -->
<svg version="1.1" id="图层_1" xmlns="http://www.w3.org/2000/svg" xmlns:xlink="http://www.w3.org/1999/xlink" x="0px" y="0px"
	 viewBox="0 0 137.6 151.1" style="enable-background:new 0 0 137.6 151.1;" xml:space="preserve">
<style type="text/css">
	.st0{fill:#CDCDCD;}
</style>
<path class="st0" d="M137.5,123.9c-1.5-9.8-18.7-11.8-19-18.5c-0.3-6.7,1.5-41.5,1.5-41.5c1-27.4-17.8-42.3-37.1-49.2
	c0-0.1,0-0.2,0-0.3c0-0.1,0-0.3,0-0.4c0-7.7-6.3-14-14-14s-14,6.3-14,14c0,0.1,0,0.3,0,0.4c0,0.1,0,0.2,0,0.3
	c-19.3,6.8-38.1,21.8-37.1,49.2c0,0,1.7,34.9,1.5,41.5c-0.3,6.7-17.5,8.7-19,18.5c-1,3.8,3.4,7.5,7.5,7.5h44.1
	c-0.1,0.8-0.2,1.5-0.2,2.3c0,9.5,7.7,17.2,17.2,17.2c9.5,0,17.2-7.7,17.2-17.2c0-0.8-0.1-1.6-0.2-2.3l44.1,0
	C134.1,131.5,138.4,127.7,137.5,123.9z"/>
</svg>
