<?xml version="1.0" encoding="utf-8"?>
<!-- Generator: Adobe Illustrator 21.1.0, SVG Export Plug-In . SVG Version: 6.00 Build 0)  -->
<svg version="1.1" id="图层_1" xmlns="http://www.w3.org/2000/svg" xmlns:xlink="http://www.w3.org/1999/xlink" x="0px" y="0px"
	 viewBox="0 0 137.6 151.1" style="enable-background:new 0 0 137.6 151.1;" xml:space="preserve">
<style type="text/css">
	.st0{fill:#F34840;}
</style>
<g>
	<path class="st0" d="M133.1,142.1H4.3c-2.4,0-4.3,2-4.3,4.5c0,2.5,1.9,4.4,4.3,4.4h128.8c2.4,0,4.3-2,4.3-4.4
		C137.4,144.1,135.5,142.1,133.1,142.1L133.1,142.1z M68.7,24.6c3.3,0,5.9-2.8,5.9-6.1V6.1C74.6,2.8,72,0,68.7,0s-5.9,2.8-5.9,6.1
		v12.3c0,1.6,0.6,3.2,1.7,4.4C65.6,24,67.1,24.6,68.7,24.6L68.7,24.6z M115.5,39.1c2.4,2.4,6,2.4,8.4,0l8.4-8.9
		c1.5-1.5,2.1-3.8,1.5-5.9c-0.6-2.2-2.2-3.8-4.2-4.4c-2-0.6-4.2,0-5.8,1.6l-8.4,8.7c-1.2,1.1-1.8,2.8-1.8,4.5
		C113.7,36.4,114.3,38,115.5,39.1L115.5,39.1z M13.5,39.1c1.5,1.6,3.8,2.1,5.8,1.5c2-0.6,3.6-2.3,4.2-4.5c0.5-2.2-0.1-4.5-1.6-6
		l-8.4-8.5c-2.4-1.9-5.6-1.7-7.8,0.4c-2.1,2.1-2.4,5.6-0.6,8.1L13.5,39.1z M112.2,65.5c-5-11.9-14-21.3-25.1-26
		c-11.8-5.1-24.9-5.1-36.7,0c-17.5,7.7-28.8,25.4-28.8,45.1v44.7c0.1,2.4,2,4.2,4.3,4.2h85.8c2.2,0,4.1-1.9,4.3-4.3V84.3
		C115.9,77.8,114.7,71.4,112.2,65.5L112.2,65.5z M51.6,124.4H43V84.1c0-1.6,0.8-3.1,2.1-3.9c1.3-0.8,3-0.8,4.3,0
		c1.3,0.8,2.2,2.3,2.2,3.9V124.4z"/>
</g>
</svg>
