<?xml version="1.0" encoding="utf-8"?>
<!-- Generator: Adobe Illustrator 21.1.0, SVG Export Plug-In . SVG Version: 6.00 Build 0)  -->
<svg version="1.1" id="图层_1" xmlns="http://www.w3.org/2000/svg" xmlns:xlink="http://www.w3.org/1999/xlink" x="0px" y="0px"
	 viewBox="0 0 73.4 84.4" style="enable-background:new 0 0 73.4 84.4;" xml:space="preserve">
<style type="text/css">
	.st0{fill:#5F5F5F;}
</style>
<g>
	<path class="st0" d="M73.3,9.4C72.9,8,71.5,7,70,7c-0.3,0-0.6,0-0.8,0.1l-11.9,3.1l-0.8-3.1C55.2,2,50-1,45,0.3L20.6,6.6
		c-5,1.3-8.1,6.5-6.8,11.5l0.8,3.1L2.5,24.4c-1.8,0.5-2.8,2.3-2.4,4c0.4,1.5,1.7,2.5,3.2,2.5c0.3,0,0.6,0,0.8-0.1l2.6-0.7v45.5
		c0,4.9,4,8.8,8.8,8.8h45c4.9,0,8.8-4,8.8-8.8V25.3c0-1.7-1.4-3.1-3.1-3.1c-1.7,0-3.1,1.4-3.1,3.1v50.3c0,1.4-1.1,2.5-2.5,2.5h-45
		c-1.4,0-2.5-1.1-2.5-2.5V28.5l57.8-15C72.6,13,73.7,11.2,73.3,9.4z M19.9,16.6c-0.4-1.7,0.6-3.4,2.3-3.8l24.4-6.3
		c1.7-0.4,3.4,0.6,3.8,2.3l0.8,3.1l-30.5,7.9L19.9,16.6z"/>
	<path class="st0" d="M41.8,51.6c1.2,1.2,3.3,1.2,4.5,0l8-9.3c0,0,0-0.1,0.1-0.1c0,0,0.1,0,0.1-0.1c1.2-1.2,1.2-3.3,0-4.5l-8-9.1
		c-1.2-1.2-3.3-1.2-4.5,0c-1.2,1.2-1.2,3.3,0,4.5l3.2,3.7H33.4c-4.3,0-7.9,3.5-7.9,7.9v23.8c0,1.7,1.4,3.1,3.1,3.1s3.1-1.4,3.1-3.1
		V44.6c0-0.9,0.7-1.6,1.6-1.6h11.9l-3.5,4.1C40.6,48.4,40.6,50.4,41.8,51.6z"/>
</g>
</svg>
