<?xml version="1.0" encoding="utf-8"?>
<!-- Generator: Adobe Illustrator 21.1.0, SVG Export Plug-In . SVG Version: 6.00 Build 0)  -->
<svg version="1.1" id="图层_1" xmlns="http://www.w3.org/2000/svg" xmlns:xlink="http://www.w3.org/1999/xlink" x="0px" y="0px"
	 viewBox="0 0 12 13.3" style="enable-background:new 0 0 12 13.3;" xml:space="preserve">
<style type="text/css">
	.st0{fill:#66A6E7;}
	.st1{fill:#FFDECC;}
	.st2{fill:#F7C5AA;}
	.st3{fill:#DEECF8;}
	.st4{fill:#3C7CC2;}
	.st5{fill:#794821;}
</style>
<g>
	<path class="st0" d="M4.8,7.8C2.2,9,1.4,9.6,1,9.9c-0.5,0.4-0.8,2-1,3.4h12c-0.3-1.4-0.6-3-1-3.4c-0.3-0.3-1.1-0.9-3.7-2L4.8,7.8
		L4.8,7.8z"/>
	<path class="st1" d="M7.3,5.5v2.9c-0.7,0.9-1.9,0.8-2.6,0V5.5C4.7,3.9,7.3,3.9,7.3,5.5z"/>
	<path class="st2" d="M7.3,5.5v2C6.8,7.9,6.3,8.1,6,8.1S5.2,7.9,4.7,7.5v-2C4.7,3.9,7.3,3.9,7.3,5.5z"/>
	<path class="st3" d="M4.6,7.8L3.7,8.3L5,10.1l1-1L4.6,7.8L4.6,7.8z"/>
	<path class="st3" d="M7.4,7.8l0.9,0.5L7,10.1l-1-1L7.4,7.8L7.4,7.8z"/>
	<path class="st4" d="M2.4,13.3h0.2c0-0.9,0-1.6,0-1.6S2.5,12.4,2.4,13.3z M9.5,13.3H9.3c0-0.9,0-1.6,0-1.6S9.4,12.4,9.5,13.3z"/>
	<path class="st1" d="M6,0.4C1.7,0.4,3.2,5.6,3.5,6C3.8,6.5,5.3,7.7,6,7.7S8.2,6.5,8.5,6C8.7,5.7,10.3,0.4,6,0.4L6,0.4z"/>
	<path class="st1" d="M2.7,3.9c0.2-0.1,0.5,0.2,0.6,0.6c0.1,0.4,0.1,0.8-0.2,0.8C2.9,5.4,2.6,5.1,2.5,4.7S2.4,3.9,2.7,3.9z M9.3,3.9
		C9.1,3.8,8.8,4.1,8.7,4.5C8.6,4.9,8.6,5.3,8.9,5.3c0.2,0.1,0.5-0.2,0.6-0.6S9.5,3.9,9.3,3.9z"/>
	<path class="st5" d="M4,2.2C3.7,3.6,3.1,3.4,3.2,5C3,3.7,2.7,2.1,3.5,1c0.7-0.9,2.9-1.5,4.4-0.5C9.5,0.8,9,4.1,8.8,4.7
		c-0.1-1-0.5-1.4-0.9-2.6C7.3,2.6,4.8,2.7,4,2.2L4,2.2z"/>
</g>
</svg>
