<?xml version="1.0" encoding="utf-8"?>
<!-- Generator: Adobe Illustrator 21.1.0, SVG Export Plug-In . SVG Version: 6.00 Build 0)  -->
<svg version="1.1" id="图层_1" xmlns="http://www.w3.org/2000/svg" xmlns:xlink="http://www.w3.org/1999/xlink" x="0px" y="0px"
	 viewBox="0 0 177.5 199.5" style="enable-background:new 0 0 177.5 199.5;" xml:space="preserve">
<style type="text/css">
	.st0{fill:#FF4D4F;}
</style>
<path class="st0" d="M168.7,36.5h-40.3C127.8,16.1,111-0.1,90.6,0C70.2-0.1,53.5,16.1,52.9,36.5H9.4c-5.2,0.1-9.3,4.3-9.4,9.4
	c0,5,4.4,9.4,9.4,9.4h15.7V163c0,20.1,0,36.5,26.4,36.5h74.3c26.4,0,26.4-16.4,26.4-36.5V56H168c5,0,9.4-4.4,9.4-9.4
	c0.6-4.9-2.9-9.4-7.8-10C169.3,36.5,169,36.5,168.7,36.5L168.7,36.5z M90.6,18.3c10.7,0,18.9,8.2,19.5,18.2h-39
	C71.7,26.2,80.3,18.2,90.6,18.3z M125.2,181.9H52.9c-10.1,0-10.7-7.5-10.7-18.9V56h93.8v107.6C135.9,174.3,136.6,181.9,125.2,181.9
	L125.2,181.9z"/>
<path class="st0" d="M72.4,82.4c-4.4,0-8.2,4.4-8.2,10.1v56.6c0,5.7,3.8,10.1,8.2,10.1c4.4,0,8.2-4.4,8.2-10.1V92.5
	C80.5,86.8,76.8,82.4,72.4,82.4z M105.7,82.4c-4.4,0-8.2,4.4-8.2,10.1v56.6c0,5.7,3.8,10.1,8.2,10.1s8.2-4.4,8.2-10.1V92.5
	C113.9,86.8,110.1,82.4,105.7,82.4z"/>
</svg>
