<?xml version="1.0" encoding="utf-8"?>
<!-- Generator: Adobe Illustrator 21.1.0, SVG Export Plug-In . SVG Version: 6.00 Build 0)  -->
<svg version="1.1" id="图层_1" xmlns="http://www.w3.org/2000/svg" xmlns:xlink="http://www.w3.org/1999/xlink" x="0px" y="0px"
	 viewBox="0 0 200 200" style="enable-background:new 0 0 200 200;" xml:space="preserve">
<style type="text/css">
	.st0{fill:#1890FF;}
</style>
<path class="st0" d="M22.2,16.7c-3.1,0-5.6,2.5-5.6,5.6v155.6c0,3.1,2.5,5.6,5.6,5.6l0,0h155.6c3.1,0,5.6-2.5,5.6-5.6l0,0V22.2
	c0-3.1-2.5-5.6-5.6-5.6l0,0H22.2V16.7z M22.2,0h155.6C190.1,0,200,9.9,200,22.2v155.6c0,12.3-9.9,22.2-22.2,22.2H22.2
	C9.9,200,0,190.1,0,177.8V22.2C0,9.9,9.9,0,22.2,0L22.2,0z"/>
<path class="st0" d="M47.2,62.3h70.7c5.4,0,9.7-4.3,9.7-9.7s-4.3-9.7-9.7-9.7H47.2c-5.4,0-9.7,4.3-9.7,9.7S41.9,62.3,47.2,62.3z
	 M152.8,137.7H47.2c-5.4,0-9.7,4.3-9.7,9.7s4.3,9.7,9.7,9.7h105.7c5.4,0,9.7-4.3,9.7-9.7S158.2,137.7,152.8,137.7z M152.8,90.2H47.2
	c-5.4,0-9.7,4.3-9.7,9.7s4.3,9.7,9.7,9.7h105.7c5.4,0,9.7-4.3,9.7-9.7C162.6,94.6,158.2,90.2,152.8,90.2z"/>
</svg>
