<?xml version="1.0" standalone="no"?><!DOCTYPE svg PUBLIC "-//W3C//DTD SVG 1.1//EN" "http://www.w3.org/Graphics/SVG/1.1/DTD/svg11.dtd"><svg t="1587024535675" class="icon" viewBox="0 0 1024 1024" version="1.1" xmlns="http://www.w3.org/2000/svg" p-id="4339" xmlns:xlink="http://www.w3.org/1999/xlink" width="200" height="200"><defs><style type="text/css"></style></defs><path d="M463.36 971.264a48.64 19.968 0 1 0 97.28 0 48.64 19.968 0 1 0-97.28 0Z" fill="#C6C6C6" p-id="4340"></path><path d="M338.8928 204.1344a173.1072 171.3664 0 1 0 346.2144 0 173.1072 171.3664 0 1 0-346.2144 0Z" fill="#FE5B47" p-id="4341"></path><path d="M543.232 879.6672l-30.72 85.8112-31.744-85.8112V406.272c0-6.8096 7.2192-12.3392 16.0768-12.3392H527.36c8.8576 0 16.0768 5.5296 16.0768 12.3392z" fill="#FE5B47" p-id="4342"></path><path d="M421.376 133.4784a38.0416 37.632 0 1 0 76.0832 0 38.0416 37.632 0 1 0-76.0832 0Z" fill="#FFFFFF" p-id="4343"></path></svg>