<?xml version="1.0" encoding="utf-8"?>
<!-- Generator: Adobe Illustrator 21.1.0, SVG Export Plug-In . SVG Version: 6.00 Build 0)  -->
<svg version="1.1" id="图层_1" xmlns="http://www.w3.org/2000/svg" xmlns:xlink="http://www.w3.org/1999/xlink" x="0px" y="0px"
	 viewBox="0 0 167.2 169.2" style="enable-background:new 0 0 167.2 169.2;" xml:space="preserve">
<style type="text/css">
	.st0{fill:#8C8C8C;}
</style>
<g>
	<path class="st0" d="M162.1,39l-72.3,72.3c-0.5,0.5-1.1,0.9-1.8,1.2l-42.9,18.2c-3,1.3-6.4-0.2-7.7-3.1c-0.6-1.5-0.6-3.1,0-4.5
		l18.2-42.9c0.3-0.7,0.7-1.3,1.2-1.9L129.1,6c5.1-5.1,13.4-5.2,18.6-0.1l14.4,14.4C167.3,25.6,167.3,33.9,162.1,39L162.1,39z
		 M67.1,86.6l-10.6,25l25-10.6l50.7-50.7l-14.4-14.4L67.1,86.6z M138.5,15.3l-11.3,11.3L141.6,41l11.3-11.3l0.1-0.1L138.5,15.3z
		 M91.1,14.7H14.6v139.9h138V83.8c0-4,3.1-7.3,7.1-7.3c0.1,0,0.1,0,0.2,0c4,0,7.3,3.3,7.3,7.3c0,0.3,0,0.5-0.1,0.8h0.1v70
		c0,8.1-6.5,14.6-14.6,14.6l0,0h-138c-8.1,0-14.6-6.5-14.6-14.6l0,0v-140C0,6.5,6.5,0,14.6,0l0,0h76.5c4.1,0,7.3,3.3,7.3,7.3
		S95.2,14.7,91.1,14.7z"/>
</g>
</svg>
