<?xml version="1.0" encoding="utf-8"?>
<!-- Generator: Adobe Illustrator 21.1.0, SVG Export Plug-In . SVG Version: 6.00 Build 0)  -->
<svg version="1.1" id="图层_1" xmlns="http://www.w3.org/2000/svg" xmlns:xlink="http://www.w3.org/1999/xlink" x="0px" y="0px"
	 viewBox="0 0 20 16" style="enable-background:new 0 0 20 16;" xml:space="preserve">
<style type="text/css">
	.st0{fill:#8A8A8A;}
</style>
<g>
	<g>
		<path class="st0" d="M7.1,4.4c-1.3,0-2.4,1.1-2.4,2.4s1.1,2.4,2.4,2.4s2.4-1.1,2.4-2.4C9.6,5.4,8.5,4.4,7.1,4.4z M7.1,7.8
			c-0.6,0-1-0.4-1-1c0-0.5,0.4-1,1-1s1,0.4,1,1C8.1,7.3,7.7,7.8,7.1,7.8z M16.8,10.8c-0.2-0.1-0.5-0.2-0.7-0.2
			c-0.5,0-0.9,0.2-1.2,0.6c-0.4,0.6-0.2,1.5,0.4,1.9c0.2,0.1,0.5,0.2,0.7,0.2c0.5,0,0.9-0.2,1.2-0.6c0.2-0.3,0.3-0.7,0.2-1
			C17.4,11.4,17.2,11.1,16.8,10.8z M16.6,12.3c-0.1,0.2-0.3,0.2-0.4,0.2s-0.2,0-0.3-0.1c-0.2-0.2-0.3-0.5-0.2-0.7s0.3-0.2,0.4-0.2
			s0.2,0,0.3,0.1c0.1,0.1,0.2,0.2,0.2,0.3C16.7,12,16.6,12.2,16.6,12.3z M11.8,10.3c0.3-0.4,0.6-0.8,0.7-1.3H13
			c0.7,0,1.2-0.5,1.2-1.2v-2c0-0.7-0.6-1.2-1.2-1.2h-0.5c-0.2-0.5-0.4-0.9-0.7-1.3L12,2.8c0.2-0.3,0.2-0.6,0.1-0.9
			c-0.1-0.3-0.3-0.6-0.6-0.7l-1.8-1C9.6,0.1,9.4,0,9.2,0C8.8,0,8.4,0.2,8.1,0.6L7.9,1c-0.5,0-1,0-1.5,0L6.1,0.6C5.9,0.2,5.5,0,5.1,0
			C4.9,0,4.6,0.1,4.5,0.2l-1.8,1C2.4,1.3,2.2,1.6,2.1,1.9C2,2.2,2.1,2.6,2.2,2.8l0.3,0.4C2.2,3.7,1.9,4.1,1.7,4.5H1.2
			C0.6,4.5,0,5.1,0,5.8v2C0,8.5,0.6,9,1.2,9h0.5c0.2,0.5,0.4,0.9,0.7,1.3l-0.3,0.4c0,0.3-0.1,0.6,0,0.9s0.3,0.6,0.6,0.7l1.8,1
			c0.2,0.1,0.4,0.2,0.6,0.2c0.4,0,0.8-0.2,1.1-0.6l0.3-0.4c0.5,0.1,1,0.1,1.5,0L8.1,13c0.2,0.4,0.6,0.6,1.1,0.6
			c0.2,0,0.4-0.1,0.6-0.2l1.8-1c0.3-0.2,0.5-0.4,0.6-0.7s0-0.6-0.1-0.9L11.8,10.3z M11.4,8.1c-0.2,0.6-0.5,1.2-1,1.6
			c-0.2,0.2-0.2,0.6-0.1,0.8l0.4,0.7L9.3,12l-0.4-0.7C8.7,11,8.4,10.9,8.1,11c-0.6,0.1-1.3,0.1-1.9,0c-0.3-0.1-0.6,0.1-0.8,0.3
			L5,12.1l-1.4-0.8L4,10.6c0.2-0.3,0.1-0.6-0.1-0.8c-0.4-0.5-0.8-1-1-1.6C2.8,7.8,2.5,7.6,2.2,7.6H1.4V6h0.8c0.3,0,0.6-0.2,0.7-0.5
			c0.2-0.6,0.5-1.2,1-1.6C4.1,3.6,4.1,3.3,4,3L3.6,2.3L5,1.5l0.4,0.7c0.2,0.3,0.5,0.4,0.8,0.3c0.6-0.1,1.3-0.1,1.9,0
			c0.3,0.1,0.6-0.1,0.8-0.3l0.4-0.7l1.4,0.8L10.3,3c-0.2,0.3-0.1,0.6,0.1,0.8c0.4,0.5,0.8,1,1,1.6C11.4,5.8,11.7,6,12,6h0.8v1.6H12
			C11.7,7.6,11.4,7.8,11.4,8.1z M19.6,11.6c0.2-0.1,0.3-0.2,0.4-0.4s0-0.4-0.1-0.5l-0.5-1c-0.1-0.2-0.4-0.4-0.6-0.4
			c-0.1,0-0.2,0-0.3,0.1l-0.2,0.1c-0.1-0.1-0.2-0.2-0.3-0.2c-0.1-0.1-0.2-0.1-0.4-0.2V8.8c0-0.4-0.3-0.7-0.7-0.7h-1.1
			c-0.4,0-0.7,0.3-0.7,0.7v0.3c-0.3,0.1-0.5,0.2-0.7,0.4L14,9.2c-0.1-0.1-0.2-0.1-0.4-0.1S13.1,9.2,13,9.4l-0.6,1
			c-0.1,0.2-0.1,0.4-0.1,0.5c0,0.2,0.2,0.3,0.3,0.4l0.2,0.1c0,0.3-0.1,0.5,0,0.8l-0.2,0.1c-0.2,0.1-0.3,0.2-0.3,0.4
			c-0.1,0.2,0,0.4,0.1,0.5l0.5,1c0.1,0.2,0.4,0.4,0.6,0.4c0.1,0,0.2,0,0.3-0.1l0.2-0.1c0.1,0.1,0.2,0.2,0.3,0.2
			c0.1,0.1,0.2,0.1,0.4,0.2v0.3c0,0.4,0.3,0.7,0.7,0.7h1.1l0,0c0.4,0,0.7-0.3,0.7-0.7v-0.3c0.3-0.1,0.5-0.2,0.7-0.4l0.2,0.1
			c0.1,0.1,0.2,0.1,0.4,0.1c0.2,0,0.5-0.1,0.6-0.3l0.6-1c0.1-0.2,0.1-0.4,0.1-0.5c0-0.2-0.2-0.3-0.3-0.4l-0.2-0.1
			c0-0.3,0.1-0.5,0-0.8L19.6,11.6z M18.2,12.5c0,0.2,0,0.3,0.2,0.4l0.3,0.2l-0.4,0.6L18,13.6c-0.1-0.1-0.3-0.1-0.5,0
			C17.3,13.8,17,14,16.7,14c-0.2,0-0.3,0.2-0.3,0.3v0.4h-0.8v-0.4c0-0.2-0.1-0.3-0.3-0.4c-0.2-0.1-0.3-0.1-0.4-0.2
			c-0.1-0.1-0.3-0.2-0.4-0.3c-0.1-0.1-0.3-0.1-0.5-0.1l-0.3,0.2L13.4,13l0.3-0.2c0.1-0.1,0.2-0.2,0.2-0.4c-0.1-0.3,0-0.6,0-0.9
			c0-0.2,0-0.3-0.2-0.4l-0.3-0.2l0.4-0.6l0.3,0.2c0.1,0.1,0.3,0.1,0.5,0c0.2-0.2,0.5-0.3,0.8-0.4c0.2,0,0.3-0.2,0.3-0.3V9.4h0.8v0.4
			c0,0.2,0.1,0.3,0.3,0.4c0.2,0.1,0.3,0.1,0.4,0.2c0.1,0.1,0.3,0.2,0.4,0.3s0.3,0.1,0.5,0.1l0.3-0.2l0.4,0.7l-0.3,0.2
			c-0.1,0.1-0.2,0.2-0.2,0.4C18.3,11.9,18.3,12.2,18.2,12.5z"/>
	</g>
</g>
</svg>
