<?xml version="1.0" encoding="utf-8"?>
<!-- Generator: Adobe Illustrator 21.1.0, SVG Export Plug-In . SVG Version: 6.00 Build 0)  -->
<svg version="1.1" id="图层_1" xmlns="http://www.w3.org/2000/svg" xmlns:xlink="http://www.w3.org/1999/xlink" x="0px" y="0px"
	 viewBox="0 0 19 19" style="enable-background:new 0 0 19 19;" xml:space="preserve">
<style type="text/css">
	.st0{fill:#8A8A8A;}
</style>
<g>
	<g>
		<path class="st0" d="M15.4,11.9c-0.1,0-0.1,0-0.2,0L9.3,6c0.1-0.4,0.2-0.8,0.2-1.2c0-1.2-0.5-2.4-1.4-3.4C7.2,0.5,6,0,4.7,0
			c-0.5,0-1,0.1-1.5,0.3C3,0.3,2.8,0.5,2.8,0.7s0,0.4,0.2,0.6l2.4,2.4L5.1,5.1L3.7,5.4L1.3,2.9C1.1,2.8,0.9,2.7,0.7,2.8
			C0.5,2.8,0.3,3,0.3,3.2C0.1,3.7,0,4.2,0,4.7C0,6,0.5,7.2,1.4,8.1C2.3,9,3.5,9.5,4.7,9.5c0.4,0,0.8-0.1,1.2-0.2l5.9,5.9
			c0,0.1,0,0.1,0,0.2c0,2,1.6,3.6,3.6,3.6s3.6-1.6,3.6-3.6C19,13.5,17.4,11.9,15.4,11.9z M15.4,17.8c-1.3,0-2.4-1.1-2.4-2.4
			c0-0.1,0-0.2,0-0.3c0-0.2,0-0.4-0.2-0.5L6.6,8.2C6.4,8.1,6.2,8,5.9,8.1C5.6,8.2,5.2,8.3,4.7,8.3c-0.9,0-1.8-0.3-2.5-1
			s-1-1.6-1-2.5c0-0.1,0-0.1,0-0.2l1.9,1.9c0.1,0.1,0.3,0.2,0.5,0.2l2.1-0.4c0.2,0,0.4-0.2,0.5-0.5l0.4-2.1c0-0.2,0-0.4-0.2-0.5
			l-1.8-2c0.1,0,0.1,0,0.2,0c0.9,0,1.8,0.3,2.5,1s1,1.6,1,2.5c0,0.4-0.1,0.8-0.2,1.2C8,6.2,8.1,6.4,8.2,6.6l6.4,6.4
			c0.1,0.1,0.3,0.2,0.5,0.2c0.1,0,0.3,0,0.3,0c1.3,0,2.4,1.1,2.4,2.4C17.8,16.7,16.7,17.8,15.4,17.8z M15.4,14.2
			c-0.7,0-1.2,0.5-1.2,1.2c0,0.7,0.5,1.2,1.2,1.2c0.7,0,1.2-0.5,1.2-1.2C16.6,14.8,16.1,14.3,15.4,14.2z"/>
	</g>
</g>
</svg>
