<?xml version="1.0" encoding="utf-8"?>
<!-- Generator: Adobe Illustrator 21.1.0, SVG Export Plug-In . SVG Version: 6.00 Build 0)  -->
<svg version="1.1" id="图层_1" xmlns="http://www.w3.org/2000/svg" xmlns:xlink="http://www.w3.org/1999/xlink" x="0px" y="0px"
	 viewBox="0 0 154.9 154.9" style="enable-background:new 0 0 154.9 154.9;" xml:space="preserve">
<style type="text/css">
	.st0{fill:#8C8C8C;}
</style>
<g>
	<path class="st0" d="M149,114.3c-3.3,0-5.9,2.3-5.9,5.2v14c0,6.1-5.6,11.1-12.6,11.1H24.4c-6.9,0-12.6-4.9-12.6-11.1v-112
		c0-6.1,5.6-11.1,12.6-11.1h106.1c6.9,0,12.6,4.9,12.6,11.1v12.4c0,2.9,2.6,5.2,5.9,5.2c3.3,0,5.9-2.3,5.9-5.2V21.5
		C154.9,9.7,144,0,130.5,0H24.4C10.9,0,0,9.7,0,21.5v112c0,11.8,10.9,21.5,24.4,21.5h106.1c13.4,0,24.4-9.6,24.4-21.5v-13.9
		C154.9,116.7,152.2,114.3,149,114.3z"/>
	<path class="st0" d="M133.1,71.1H64.2L85,52.8c2.7-2.4,2.7-6.2,0-8.6s-7.1-2.4-9.8,0L42.6,72.9l0,0l0,0c-0.1,0.2-0.3,0.3-0.4,0.4
		c-0.1,0.1-0.1,0.2-0.2,0.2c-0.1,0.1-0.1,0.2-0.2,0.3c-0.1,0.1-0.1,0.2-0.2,0.3c-0.1,0.1-0.1,0.2-0.2,0.3l0,0c0,0.1-0.1,0.2-0.1,0.3
		s-0.1,0.2-0.1,0.3c0,0.1-0.1,0.2-0.1,0.3S41,75.3,41,75.3c0,0.1-0.1,0.2-0.1,0.3s-0.1,0.2-0.1,0.4c0,0.1,0,0.2-0.1,0.3
		c0,0.1,0,0.2,0,0.3c0,0.2,0,0.4,0,0.5c0,0,0,0,0,0.1c0,0,0,0,0,0.1c0,0.2,0,0.4,0,0.5c0,0.1,0,0.2,0,0.3c0,0.1,0,0.2,0.1,0.4
		c0,0.1,0.1,0.2,0.1,0.3s0,0.2,0.1,0.3c0,0.1,0.1,0.2,0.1,0.3s0.1,0.2,0.1,0.3s0.1,0.2,0.1,0.3c0.1,0.1,0.1,0.2,0.2,0.3
		c0,0.1,0.1,0.2,0.2,0.3c0.1,0.1,0.1,0.2,0.2,0.3c0.1,0.1,0.1,0.2,0.2,0.3c0.1,0.1,0.1,0.2,0.2,0.3c0.1,0.1,0.2,0.3,0.3,0.4l0.1,0.1
		l0,0l32.6,28.7c2.7,2.4,7.1,2.4,9.8,0c2.7-2.4,2.7-6.2,0-8.6L64.3,83.2h68.9c3.8,0,6.9-2.7,6.9-6.1C140,73.8,136.9,71.1,133.1,71.1
		z"/>
</g>
</svg>
