<?xml version="1.0" encoding="utf-8"?>
<!-- Generator: Adobe Illustrator 21.1.0, SVG Export Plug-In . SVG Version: 6.00 Build 0)  -->
<svg version="1.1" id="图层_1" xmlns="http://www.w3.org/2000/svg" xmlns:xlink="http://www.w3.org/1999/xlink" x="0px" y="0px"
	 viewBox="0 0 187.6 184.8" style="enable-background:new 0 0 187.6 184.8;" xml:space="preserve">
<style type="text/css">
	.st0{fill:#FFFFFF;}
</style>
<g>
	<path class="st0" d="M88.1,54.6c-0.3-2.1-1.7-3.9-3.8-4.7c-0.7-0.3-1.4-0.4-2.1-0.4s-1.4,0.1-2.1,0.4c-2.1,0.8-3.5,2.6-3.8,4.7
		l-27.6,75.9c-1.1,3,0.5,6.4,3.5,7.5c3,1.1,6.4-0.5,7.5-3.5l8.9-24.5h27.1l8.9,24.5c1.1,3,4.5,4.6,7.5,3.5c3.2-1.1,4.7-4.5,3.6-7.5
		C115.7,130.5,88.1,54.6,88.1,54.6z M73,98.3l9.3-25.6l9.3,25.6H73z"/>
	<path class="st0" d="M144.5,23.4h-125C8.7,23.4,0,32.1,0,42.9v101.5c0,10.8,8.7,19.5,19.5,19.5h59.6l18,18c3.8,3.8,10,3.8,13.8,0
		l17.7-18h15.8c10.8,0,19.5-8.7,19.5-19.5V42.9C164,32.2,155.3,23.4,144.5,23.4z M152.3,142.4c0,5.4-4.4,9.8-9.8,9.8h-18.9
		l-16.2,16.5c-1.9,1.9-5,1.9-6.9,0l-16.4-16.5H21.4c-5.4,0-9.8-4.4-9.8-9.8V44.7c0-5.4,4.4-9.8,9.8-9.8h121.1c5.4,0,9.8,4.4,9.8,9.8
		V142.4z"/>
	<path class="st0" d="M168,0H34c-3.2,0-5.9,2.6-5.9,5.9c0,3.2,2.6,5.9,5.9,5.9h132c5.4,0,9.8,4.4,9.8,9.8v108.2
		c0,3.2,2.6,5.9,5.9,5.9s5.9-2.6,5.9-5.9V19.5C187.5,8.7,178.8,0,168,0L168,0z"/>
</g>
</svg>
