<?xml version="1.0" encoding="utf-8"?>
<!-- Generator: Adobe Illustrator 21.1.0, SVG Export Plug-In . SVG Version: 6.00 Build 0)  -->
<svg version="1.1" id="图层_1" xmlns="http://www.w3.org/2000/svg" xmlns:xlink="http://www.w3.org/1999/xlink" x="0px" y="0px"
	 viewBox="0 0 103.4 84.6" style="enable-background:new 0 0 103.4 84.6;" xml:space="preserve">
<style type="text/css">
	.st0{fill:#5F5F5F;}
</style>
<g>
	<path class="st0" d="M88.9,84.6H14.5C6.6,84.6,0,78.1,0,70.3V17.3h21.9V0h81.5v70.3C103.4,78.1,96.8,84.6,88.9,84.6L88.9,84.6z
		 M26.7,77.7h62.2c3.9,0,7.4-3.5,7.4-7.3V6.9H28.9v63.4h-7V24.2H7v46.2c0,3.9,3.5,7.3,7.4,7.3c3.9,0,7.4-3.5,7.4-7.3h7
		C28.9,72.9,28,75.5,26.7,77.7z M86.7,58.7H38.5v-6.9h48.2V58.7z M85.9,41.4H65.7V17.3h20.2V41.4z M72.7,34.5h6.1V24.2h-6.1V34.5z
		 M56.1,41.4H38.5v-6.9h17.5V41.4z M56.1,24.2H38.5v-6.9h17.5V24.2z"/>
</g>
</svg>
