<?xml version="1.0" encoding="utf-8"?>
<!-- Generator: Adobe Illustrator 21.1.0, SVG Export Plug-In . SVG Version: 6.00 Build 0)  -->
<svg version="1.1" id="图层_1" xmlns="http://www.w3.org/2000/svg" xmlns:xlink="http://www.w3.org/1999/xlink" x="0px" y="0px"
	 viewBox="0 0 151.1 144" style="enable-background:new 0 0 151.1 144;" xml:space="preserve">
<style type="text/css">
	.st0{fill:#ADADAD;}
</style>
<g>
	<path class="st0" d="M3.3,44.8l69.2,33.3C73.3,79,74.2,79,75,79c0.8,0,1.7,0,2.5-0.8l69.2-33.3c1.7-0.8,3.3-3.3,3.3-5
		s-1.7-4.2-3.3-5.8L77.5,0.6c-1.7-0.8-3.3-0.8-5.8,0L2.5,34C1.7,34.8,0,37.3,0,39.8S1.7,44,3.3,44.8z"/>
	<path class="st0" d="M3.3,78.1l69.2,31.7c0.8,0,1.7,0.8,2.5,0.8c0.8,0,1.7,0,2.5-0.8l69.2-31.7c3.3-1.7,4.2-5,3.3-8.3
		c-1.7-3.3-5-4.2-8.3-3.3L75,97.3L9.2,66.5c-3.3-1.7-6.7,0-8.3,3.3C-0.8,73.1,0.8,77.3,3.3,78.1z"/>
	<path class="st0" d="M140.8,100.6l-65.8,30L9.2,99.8c-3.3-1.7-6.7,0-8.3,3.3s0,6.7,3.3,8.3l69.2,31.7c0.8,0,1.7,0.8,2.5,0.8
		c0.8,0,1.7,0,2.5-0.8l69.2-31.7c3.3-1.7,4.2-5,3.3-8.3C148.3,100.6,144.2,99,140.8,100.6L140.8,100.6z"/>
</g>
</svg>
