<?xml version="1.0" encoding="utf-8"?>
<!-- Generator: Adobe Illustrator 21.1.0, SVG Export Plug-In . SVG Version: 6.00 Build 0)  -->
<svg version="1.1" id="图层_1" xmlns="http://www.w3.org/2000/svg" xmlns:xlink="http://www.w3.org/1999/xlink" x="0px" y="0px"
	 viewBox="0 0 20 20" style="enable-background:new 0 0 20 20;" xml:space="preserve">
<style type="text/css">
	.st0{fill:#8A8A8A;}
</style>
<g>
	<g>
		<path class="st0" d="M8,10.7H1.4c-0.7,0-1.3,0.6-1.3,1.3v6.6c0,0.7,0.6,1.3,1.3,1.3H8c0.7,0,1.3-0.6,1.3-1.3V12
			C9.3,11.3,8.7,10.7,8,10.7z M8.1,18.7L8.1,18.7l-6.6,0.1c0,0-0.1,0-0.1-0.1v-6.6c0,0,0-0.1,0.1-0.1H8c0,0,0.1,0,0.1,0.1V18.7z
			 M18.7,0h-6.6c-0.7,0-1.3,0.6-1.3,1.3v6.6c0,0.7,0.6,1.3,1.3,1.3h6.6c0.7,0,1.3-0.6,1.3-1.3V1.3C20,0.6,19.4,0,18.7,0z M18.8,7.9
			C18.8,8,18.7,8,18.8,7.9L12.1,8c0,0-0.1,0-0.1-0.1V1.3c0,0,0-0.1,0.1-0.1h6.6c0,0,0.1,0,0.1,0.1C18.8,1.3,18.8,7.9,18.8,7.9z
			 M18.7,10.7h-6.6c-0.7,0-1.3,0.6-1.3,1.3v6.6c0,0.7,0.6,1.3,1.3,1.3h6.6c0.7,0,1.3-0.6,1.3-1.3V12C20,11.3,19.4,10.7,18.7,10.7z
			 M18.8,18.7C18.8,18.7,18.7,18.7,18.8,18.7l-6.6,0.1c0,0-0.1,0-0.1-0.1v-6.6c0,0,0-0.1,0.1-0.1h6.6c0,0,0.1,0,0.1,0.1v6.6H18.8z
			 M7.6,1C6.7,0.4,5.8,0,4.7,0C3.7,0,2.8,0.3,2,0.9S0.6,2.2,0.3,3.1v0.1C0,4.2,0,5.3,0.3,6.3v0.1C0.7,7.5,1.6,8.5,2.7,9h0.1
			c0.6,0.3,1.3,0.4,2,0.4c0.3,0,0.5,0,0.8-0.1c1-0.2,1.8-0.6,2.5-1.3C9,7.3,9.4,6.1,9.4,4.8S8.9,2.3,8,1.4C7.9,1.3,7.7,1.2,7.6,1z
			 M7.1,7.2c-0.6,0.7-1.5,1-2.4,1c-1.3,0-2.5-0.8-3.1-2c0,0,0,0,0-0.1C1,4.9,1.3,3.4,2.3,2.4C3.4,1.2,5.2,1,6.5,1.9
			c1,0.6,1.6,1.7,1.6,2.9C8.1,5.7,7.8,6.6,7.1,7.2z"/>
	</g>
</g>
</svg>
