<?xml version="1.0" encoding="utf-8"?>
<!-- Generator: Adobe Illustrator 21.1.0, SVG Export Plug-In . SVG Version: 6.00 Build 0)  -->
<svg version="1.1" id="图层_1" xmlns="http://www.w3.org/2000/svg" xmlns:xlink="http://www.w3.org/1999/xlink" x="0px" y="0px"
	 viewBox="0 0 202 123.2" style="enable-background:new 0 0 202 123.2;" xml:space="preserve">
<style type="text/css">
	.st0{fill:#746F7C;}
	.st1{fill:#FFDC5B;}
	.st2{fill:#615C6B;}
	.st3{fill:#7E8283;}
	.st4{fill:#FFC64B;}
	.st5{fill:#625D6C;}
	.st6{fill:#FFC74B;}
	.st7{fill:#282440;}
	.st8{fill:#FECE2F;}
	.st9{fill:#ED4124;}
	.st10{fill:#635F6E;}
	.st11{fill:#2F3337;}
	.st12{fill-rule:evenodd;clip-rule:evenodd;fill:#40484C;}
	.st13{fill-rule:evenodd;clip-rule:evenodd;fill:#D7D8D8;}
</style>
<g>
	<polygon class="st0" points="195.6,3.2 188.1,3.2 181.5,7.4 181.5,12.9 188.1,8.8 195.6,8.8 195.6,9.7 195.6,23.3 195.6,23.3 
		187.7,40.1 194.1,40.1 202,23.3 202,9.7 202,3.2 	"/>
	<path class="st1" d="M30.6,61.6H11.6c-1.4,0-2.2-1.4-1.7-2.6l6.8-14.2c0.2-0.4,0.5-0.6,0.9-0.6h12c0.6,0,1,0.5,1,1V61.6L30.6,61.6z
		 M47.4,42.8c0-2-1.6-3.6-3.6-3.6H16.2c-1.4,0-2.6,0.8-3.2,2L4.2,59.6c-0.6,1.3-0.9,2.7-0.9,4.2v31.3c0,6.6,5.4,12.1,12.1,12.1h32.1
		V42.8L47.4,42.8z"/>
	<rect x="67" y="63.9" transform="matrix(0.9118 -0.4106 0.4106 0.9118 -20.8674 35.6166)" class="st0" width="10.9" height="4.9"/>
	<polygon class="st2" points="185.2,94.1 53.7,94.1 53.7,107.2 185.2,107.2 185.2,94.1 	"/>
	<polygon class="st0" points="140.5,81.9 140.5,81.9 73.6,82.9 73.6,77.5 63.7,55.2 53.7,55.2 53.7,94.1 185.2,94.1 185.2,84.8 
		186.1,81.9 	"/>
	<path class="st3" d="M30.6,45.1C30.6,45.1,30.6,45.1,30.6,45.1l0,16.5H11.6c-0.2,0-0.4,0-0.6-0.1c0.2,0.1,0.4,0.1,0.6,0.1h19.1
		L30.6,45.1C30.6,45.1,30.6,45.1,30.6,45.1L30.6,45.1z"/>
	<path class="st3" d="M30.5,44.7c0,0,0,0.1,0,0.1C30.6,44.8,30.5,44.7,30.5,44.7L30.5,44.7z"/>
	<path class="st3" d="M10.9,61.4c-0.1-0.1-0.3-0.1-0.4-0.2C10.6,61.3,10.7,61.4,10.9,61.4L10.9,61.4z"/>
	<polygon class="st4" points="36.9,68.4 42.6,68.4 42.6,66.4 36.9,66.4 36.9,68.4 	"/>
	<path class="st5" d="M29.6,44.1h-12c-0.4,0-0.8,0.2-0.9,0.6L9.9,58.9c-0.6,1.2,0.3,2.6,1.7,2.6h19.1V45.1
		C30.6,44.6,30.2,44.1,29.6,44.1L29.6,44.1z"/>
	<polygon class="st6" points="122.2,2.1 98.7,12.8 71.1,47.7 84.2,76.8 128.7,79.3 152.3,68.6 187.7,30.1 174.5,1 122.2,2.1 	"/>
	<polygon class="st1" points="76.4,59.6 108.8,33.7 131.7,23.4 179.4,11.6 174.5,1 122.2,2.1 98.7,12.8 71.1,47.7 76.4,59.6 	"/>
	<polygon class="st1" points="78.9,65 119.7,57.8 142.6,47.4 182.9,19.4 187.7,30.1 152.3,68.6 128.7,79.3 84.2,76.8 78.9,65 	"/>
	<path class="st7" d="M130,78.7c0.3,0.6,0,1.4-0.6,1.7l0,0c-0.6,0.3-1.4,0-1.7-0.6L97.6,13.2c-0.3-0.6,0-1.4,0.6-1.7l0,0
		c0.6-0.3,1.4,0,1.7,0.6L130,78.7L130,78.7z"/>
	<path class="st7" d="M153.1,68.3c0.3,0.6,0,1.4-0.6,1.7l0,0c-0.6,0.3-1.4,0-1.7-0.6L120.7,2.7c-0.3-0.6,0-1.4,0.6-1.7l0,0
		c0.6-0.3,1.4,0,1.7,0.6L153.1,68.3L153.1,68.3z"/>
	<path class="st8" d="M71.1,47.7l-1.7,0.8c-1.2,0.6-1.8,2-1.2,3.2l11.2,24.7c0.5,1.2,2,1.8,3.2,1.2l1.7-0.8L71.1,47.7L71.1,47.7z"/>
	<path class="st8" d="M174.5,1l1.7-0.8c1.2-0.6,2.7,0,3.2,1.2l11.2,24.7c0.5,1.2,0,2.7-1.2,3.2l-1.7,0.8L174.5,1L174.5,1z"/>
	<path class="st9" d="M3.3,84.1H1.7c-1,0-1.7,0.4-1.7,1v4.2c0,0.5,0.8,1,1.7,1h1.6V84.1L3.3,84.1z"/>
	<path class="st9" d="M3.3,92.1H1.7c-1,0-1.7,0.3-1.7,0.6v2.7C0,95.7,0.8,96,1.7,96h1.6V92.1L3.3,92.1z"/>
	<path class="st6" d="M31.1,99.4H4.4c-0.1,0-0.4,0-0.4,0S4,99.2,3.9,99c-0.3-0.8-0.6-2.5-0.6-2.7v-3.5h27.8V99.4z"/>
	<polygon class="st10" points="188.1,95.6 190.8,92.7 179.2,82.2 103.3,81.6 91.3,92.4 94.1,95.6 104.2,86.1 178,86.1 188.1,95.6 	
		"/>
	<path class="st11" d="M28.4,99.4v7.9H15.4c-5.2,0-9.6-3.3-11.3-7.9H28.4L28.4,99.4z"/>
	<g>
		<path class="st12" d="M41.5,91.2c8.8,0,16.1,7.2,16.1,16c0,8.9-7.2,16.1-16.1,16.1c-8.8,0-16.1-7.2-16.1-16.1
			C25.5,98.3,32.7,91.2,41.5,91.2L41.5,91.2z"/>
		<path class="st13" d="M41.5,97.2c5.5,0,10,4.5,10,10c0,5.5-4.5,10-10,10s-10-4.5-10-10C31.5,101.7,36,97.2,41.5,97.2L41.5,97.2z"
			/>
		<path class="st12" d="M41.5,103.9c1.8,0,3.2,1.5,3.2,3.2c0,1.8-1.5,3.2-3.2,3.2c-1.8,0-3.2-1.4-3.2-3.2
			C38.3,105.4,39.7,103.9,41.5,103.9L41.5,103.9z"/>
		<path class="st12" d="M41.5,98.9c0.6,0,1.2,0.5,1.2,1.1c0,0.7-0.6,1.2-1.2,1.2s-1.2-0.5-1.2-1.2C40.3,99.4,40.9,98.9,41.5,98.9
			L41.5,98.9z M41.5,113.2c0.6,0,1.2,0.5,1.2,1.1c0,0.6-0.6,1.2-1.2,1.2s-1.2-0.6-1.2-1.2C40.3,113.7,40.9,113.2,41.5,113.2
			L41.5,113.2z"/>
		<path class="st12" d="M48.8,103c0.3,0.6,0.1,1.3-0.5,1.6c-0.5,0.3-1.3,0.1-1.5-0.4c-0.4-0.6-0.1-1.3,0.4-1.6
			C47.7,102.3,48.4,102.5,48.8,103L48.8,103z M36.3,110.2c0.4,0.6,0.1,1.3-0.4,1.6c-0.6,0.3-1.3,0.1-1.6-0.4
			c-0.3-0.6-0.1-1.3,0.4-1.6C35.3,109.4,36,109.6,36.3,110.2L36.3,110.2z"/>
		<path class="st12" d="M48.8,111.4c-0.4,0.6-1.1,0.7-1.6,0.4c-0.6-0.4-0.8-1.1-0.4-1.6c0.3-0.6,1.1-0.8,1.5-0.4
			C48.8,110,49,110.8,48.8,111.4L48.8,111.4z M36.3,104.2c-0.4,0.6-1.1,0.7-1.6,0.4c-0.6-0.4-0.7-1.1-0.4-1.6
			c0.4-0.6,1.1-0.8,1.6-0.4C36.5,103,36.7,103.7,36.3,104.2L36.3,104.2z"/>
	</g>
	<g>
		<path class="st12" d="M105.9,91.2c8.8,0,16.1,7.2,16.1,16c0,8.9-7.2,16.1-16.1,16.1c-8.8,0-16.1-7.2-16.1-16.1
			C89.9,98.3,97.1,91.2,105.9,91.2L105.9,91.2z"/>
		<path class="st13" d="M105.9,97.2c5.5,0,10,4.5,10,10c0,5.5-4.5,10-10,10c-5.5,0-10-4.5-10-10C95.9,101.7,100.4,97.2,105.9,97.2
			L105.9,97.2z"/>
		<path class="st12" d="M105.9,103.9c1.8,0,3.2,1.5,3.2,3.2c0,1.8-1.5,3.2-3.2,3.2c-1.8,0-3.2-1.4-3.2-3.2
			C102.7,105.4,104.1,103.9,105.9,103.9L105.9,103.9z"/>
		<path class="st12" d="M105.9,98.9c0.6,0,1.2,0.5,1.2,1.1c0,0.7-0.6,1.2-1.2,1.2c-0.6,0-1.2-0.5-1.2-1.2
			C104.8,99.4,105.3,98.9,105.9,98.9L105.9,98.9z M105.9,113.2c0.6,0,1.2,0.5,1.2,1.1c0,0.6-0.6,1.2-1.2,1.2c-0.6,0-1.2-0.6-1.2-1.2
			C104.8,113.7,105.3,113.2,105.9,113.2L105.9,113.2z"/>
		<path class="st12" d="M113.2,103c0.3,0.6,0.1,1.3-0.5,1.6c-0.5,0.3-1.3,0.1-1.5-0.4c-0.4-0.6-0.1-1.3,0.4-1.6
			C112.1,102.3,112.8,102.5,113.2,103L113.2,103z M100.8,110.2c0.4,0.6,0.1,1.3-0.4,1.6c-0.6,0.3-1.3,0.1-1.6-0.4
			c-0.3-0.6-0.1-1.3,0.4-1.6C99.7,109.4,100.4,109.6,100.8,110.2L100.8,110.2z"/>
		<path class="st12" d="M113.2,111.4c-0.4,0.6-1.1,0.7-1.6,0.4c-0.6-0.4-0.8-1.1-0.4-1.6c0.3-0.6,1.1-0.8,1.5-0.4
			C113.2,110,113.4,110.8,113.2,111.4L113.2,111.4z M100.8,104.2c-0.4,0.6-1.1,0.7-1.6,0.4c-0.6-0.4-0.7-1.1-0.4-1.6
			c0.4-0.6,1.1-0.8,1.6-0.4C100.9,103,101.1,103.7,100.8,104.2L100.8,104.2z"/>
	</g>
	<g>
		<path class="st12" d="M163.3,91.2c8.8,0,16.1,7.2,16.1,16c0,8.9-7.2,16.1-16.1,16.1c-8.8,0-16.1-7.2-16.1-16.1
			C147.3,98.3,154.5,91.2,163.3,91.2L163.3,91.2z"/>
		<path class="st13" d="M163.3,97.2c5.5,0,10,4.5,10,10c0,5.5-4.5,10-10,10c-5.5,0-10-4.5-10-10C153.3,101.7,157.8,97.2,163.3,97.2
			L163.3,97.2z"/>
		<path class="st12" d="M163.3,103.9c1.8,0,3.2,1.5,3.2,3.2c0,1.8-1.5,3.2-3.2,3.2c-1.8,0-3.2-1.4-3.2-3.2
			C160.1,105.4,161.5,103.9,163.3,103.9L163.3,103.9z"/>
		<path class="st12" d="M163.3,98.9c0.6,0,1.2,0.5,1.2,1.1c0,0.7-0.6,1.2-1.2,1.2c-0.6,0-1.2-0.5-1.2-1.2
			C162.1,99.4,162.7,98.9,163.3,98.9L163.3,98.9z M163.3,113.2c0.6,0,1.2,0.5,1.2,1.1c0,0.6-0.6,1.2-1.2,1.2c-0.6,0-1.2-0.6-1.2-1.2
			C162.1,113.7,162.7,113.2,163.3,113.2L163.3,113.2z"/>
		<path class="st12" d="M170.5,103c0.3,0.6,0.1,1.3-0.5,1.6c-0.5,0.3-1.3,0.1-1.5-0.4c-0.4-0.6-0.1-1.3,0.4-1.6
			C169.5,102.3,170.2,102.5,170.5,103L170.5,103z M158.1,110.2c0.4,0.6,0.1,1.3-0.4,1.6c-0.6,0.3-1.3,0.1-1.6-0.4
			c-0.3-0.6-0.1-1.3,0.4-1.6C157.1,109.4,157.8,109.6,158.1,110.2L158.1,110.2z"/>
		<path class="st12" d="M170.5,111.4c-0.4,0.6-1.1,0.7-1.6,0.4c-0.6-0.4-0.8-1.1-0.4-1.6c0.3-0.6,1.1-0.8,1.5-0.4
			C170.6,110,170.8,110.8,170.5,111.4L170.5,111.4z M158.1,104.2c-0.4,0.6-1.1,0.7-1.6,0.4c-0.6-0.4-0.7-1.1-0.4-1.6
			c0.4-0.6,1.1-0.8,1.6-0.4C158.3,103,158.5,103.7,158.1,104.2L158.1,104.2z"/>
	</g>
	<polygon class="st0" points="182.7,81.9 170.6,81.9 184.8,55.2 196.8,55.2 	"/>
	<rect x="184.8" y="40.1" class="st0" width="12" height="15"/>
</g>
</svg>
