<?xml version="1.0" encoding="utf-8"?>
<!-- Generator: Adobe Illustrator 16.0.0, SVG Export Plug-In . SVG Version: 6.00 Build 0)  -->
<!DOCTYPE svg PUBLIC "-//W3C//DTD SVG 1.1//EN" "http://www.w3.org/Graphics/SVG/1.1/DTD/svg11.dtd">
<svg version="1.1" id="图层_1" xmlns="http://www.w3.org/2000/svg" xmlns:xlink="http://www.w3.org/1999/xlink" x="0px" y="0px"
	 width="195.566px" height="161.465px" viewBox="0 0 195.566 161.465" enable-background="new 0 0 195.566 161.465"
	 xml:space="preserve">
<g>
	<path fill="#B6B6B6" d="M107.751,41.76h60.864V62.64h-60.864V41.76z"/>
	<path fill="#B6B6B6" d="M129.137,3.259c-0.748-3.451,1.783-4.081,3.912-2.27c7.09,6.794,39.479,36.964,57.393,53.58
		c8.008,7.03,5.1,8.072-1.528,8.072c-6.626,0-51.066,0-51.066,0S130.279,9.889,129.137,3.259L129.137,3.259z"/>
	<path fill="#B6B6B6" d="M0,41.76h86.853V62.64H0V41.76z"/>
	<path fill="#B6B6B6" d="M86.852,119.705H30.413V98.824h56.438L86.852,119.705L86.852,119.705z"/>
	<path fill="#B6B6B6" d="M66.43,158.207c0.748,3.451-1.783,4.078-3.912,2.27c-7.089-6.795-39.48-36.963-57.394-53.58
		c-8.008-7.028-5.098-8.072,1.528-8.072c6.625,0,51.067,0,51.067,0S65.287,151.578,66.43,158.207L66.43,158.207z"/>
	<path fill="#B6B6B6" d="M195.566,119.705h-87.815V98.824h87.815V119.705z"/>
</g>
</svg>
