<?xml version="1.0" encoding="utf-8"?>
<!-- Generator: Adobe Illustrator 21.1.0, SVG Export Plug-In . SVG Version: 6.00 Build 0)  -->
<svg version="1.1" id="图层_1" xmlns="http://www.w3.org/2000/svg" xmlns:xlink="http://www.w3.org/1999/xlink" x="0px" y="0px"
	 viewBox="0 0 16.4 12" style="enable-background:new 0 0 16.4 12;" xml:space="preserve">
<style type="text/css">
	.st0{fill:url(#SVGID_1_);}
	.st1{fill:url(#SVGID_2_);}
	.st2{fill:url(#SVGID_3_);}
	.st3{fill:url(#SVGID_4_);}
</style>
<g>
	<g>
		
			<linearGradient id="SVGID_1_" gradientUnits="userSpaceOnUse" x1="745.6803" y1="-959.7656" x2="745.6803" y2="-949.7786" gradientTransform="matrix(1 0 0 -1 -736.2803 -948.7656)">
			<stop  offset="0" style="stop-color:#F1DC77"/>
			<stop  offset="0.2151" style="stop-color:#F2DF7D"/>
			<stop  offset="0.5054" style="stop-color:#F9EF9E"/>
			<stop  offset="1" style="stop-color:#FFFCB8"/>
		</linearGradient>
		<polygon class="st0" points="10.4,3 9.4,1 3.4,1 3.4,3 3.4,11 15.4,11 15.4,3 		"/>
		
			<linearGradient id="SVGID_2_" gradientUnits="userSpaceOnUse" x1="745.6803" y1="-960.7656" x2="745.6803" y2="-948.7656" gradientTransform="matrix(1 0 0 -1 -736.2803 -948.7656)">
			<stop  offset="0" style="stop-color:#CCA545"/>
			<stop  offset="0.3441" style="stop-color:#DBB964"/>
			<stop  offset="0.828" style="stop-color:#E9CB7F"/>
			<stop  offset="1" style="stop-color:#F4E3B8"/>
		</linearGradient>
		<path class="st1" d="M9.4,1l1,2h5v8h-12V3V1H9.4 M10.1,0H9.4h-6h-1v1v2v8v1h1h12h1v-1V3V2h-1H11l-0.7-1.5L10.1,0L10.1,0z"/>
	</g>
	<g>
		
			<linearGradient id="SVGID_3_" gradientUnits="userSpaceOnUse" x1="744.4803" y1="-959.7767" x2="744.4803" y2="-954.7546" gradientTransform="matrix(1 0 0 -1 -736.2803 -948.7656)">
			<stop  offset="0" style="stop-color:#F1DC77"/>
			<stop  offset="0.2151" style="stop-color:#F2DF7D"/>
			<stop  offset="0.5054" style="stop-color:#F9EF9E"/>
			<stop  offset="1" style="stop-color:#FFFCB8"/>
		</linearGradient>
		<polygon class="st2" points="15,11 3.1,11 1.4,6 13.4,6 		"/>
		
			<linearGradient id="SVGID_4_" gradientUnits="userSpaceOnUse" x1="744.4303" y1="-960.7797" x2="744.4303" y2="-953.7507" gradientTransform="matrix(1 0 0 -1 -736.2803 -948.7656)">
			<stop  offset="0" style="stop-color:#CCA545"/>
			<stop  offset="0.3441" style="stop-color:#DBB964"/>
			<stop  offset="0.828" style="stop-color:#E9CB7F"/>
			<stop  offset="1" style="stop-color:#F4E3B8"/>
		</linearGradient>
		<path class="st3" d="M13.4,6l1.6,5H3L1.4,6H13.4 M14.1,5h-0.7h-12H0l0.4,1.3l1.6,5L2.2,12h0.7h12h1.4l-0.4-1.3l-1.6-5L14.1,5
			L14.1,5z"/>
	</g>
</g>
</svg>
