<?xml version="1.0" encoding="utf-8"?>
<!-- Generator: Adobe Illustrator 21.1.0, SVG Export Plug-In . SVG Version: 6.00 Build 0)  -->
<svg version="1.1" id="图层_1" xmlns="http://www.w3.org/2000/svg" xmlns:xlink="http://www.w3.org/1999/xlink" x="0px" y="0px"
	 viewBox="0 0 159.5 166.4" style="enable-background:new 0 0 159.5 166.4;" xml:space="preserve">
<style type="text/css">
	.st0{fill:#585858;}
</style>
<g>
	<path class="st0" d="M152.3,35.6c-1.9,0-3.6-0.8-4.9-2.2l-15.5-16.6l-15.5,16.6c-2.5,2.8-6.7,3.1-9.5,0.6c-2.8-2.5-3.1-6.7-0.6-9.5
		c0.1-0.1,0.2-0.2,0.3-0.3l20.7-22c1.3-1.4,3-2.1,4.9-2.2c1.9,0,3.7,0.8,4.9,2.2l20.7,22c2.5,2.7,2.4,6.9-0.2,9.5
		C156,34.7,154.2,35.4,152.3,35.6L152.3,35.6L152.3,35.6z M131.6,166.4c-1.9,0-3.7-0.8-4.9-2.2l-20.7-22c-2.5-2.8-2.2-7.1,0.6-9.5
		c2.7-2.4,6.7-2.3,9.2,0.3l15.5,16.6l15.5-16.6c2.6-2.6,6.9-2.7,9.5-0.1c2.6,2.5,2.7,6.6,0.3,9.3l-20.7,22
		C135.4,165.6,133.5,166.4,131.6,166.4L131.6,166.4z"/>
	<path class="st0" d="M131.6,155.5c-3.7,0-6.8-2.9-6.8-6.7c0,0,0-0.1,0-0.1V16.6c0-3.8,3-6.8,6.8-6.8c3.8,0,6.8,3,6.8,6.8v132.1
		c0,3.7-3,6.8-6.7,6.8C131.7,155.5,131.6,155.5,131.6,155.5L131.6,155.5z M78.3,53.3H6.8c-3.8-0.1-6.7-3.3-6.6-7
		c0.1-3.6,3-6.4,6.6-6.6h71.5c3.7,0,6.8,2.9,6.8,6.7c0,0,0,0.1,0,0.1C85.1,50.2,82.1,53.2,78.3,53.3z M78.3,87.5H6.8
		c-3.8-0.1-6.7-3.3-6.6-7c0.1-3.6,3-6.4,6.6-6.6h71.5c3.7,0,6.8,2.9,6.8,6.7c0,0,0,0.1,0,0.1C85.1,84.5,82.1,87.5,78.3,87.5z
		 M78.1,126.7H6.6c-3.8-0.1-6.7-3.3-6.6-7c0.1-3.6,3-6.4,6.6-6.6h71.5c3.7,0,6.8,2.9,6.8,6.7c0,0,0,0.1,0,0.1
		C84.8,123.6,81.8,126.6,78.1,126.7L78.1,126.7z"/>
</g>
</svg>
