<?xml version="1.0" encoding="utf-8"?>
<!-- Generator: Adobe Illustrator 21.1.0, SVG Export Plug-In . SVG Version: 6.00 Build 0)  -->
<svg version="1.1" id="图层_1" xmlns="http://www.w3.org/2000/svg" xmlns:xlink="http://www.w3.org/1999/xlink" x="0px" y="0px"
	 viewBox="0 0 16 16" style="enable-background:new 0 0 16 16;" xml:space="preserve">
<style type="text/css">
	.st0{fill:#8A8A8A;}
</style>
<g>
	<g>
		<path class="st0" d="M14.7,0H1.3C0.6,0,0,0.6,0,1.3v14C0,15.7,0.3,16,0.6,16c0.4,0,0.6-0.3,0.6-0.7v-2h13.4v2
			c0,0.4,0.3,0.7,0.6,0.7c0.4,0,0.6-0.3,0.6-0.7v-14C16,0.6,15.4,0,14.7,0z M11,1.3h3.6V4H11V1.3z M6.2,1.3h3.6V4H6.2V1.3z M1.3,1.3
			h3.6V4H1.3V1.3z M14.7,12H1.3V5.3h13.4V12z M11.1,11c0.1,0.2,0.3,0.3,0.5,0.3c0.1,0,0.2,0,0.4-0.1c0.3-0.2,0.4-0.6,0.2-0.9l-2.6-4
			C9.4,6,9,5.9,8.7,6.1C8.4,6.3,8.3,6.7,8.5,7L11.1,11z M7.2,11c0.1,0.2,0.3,0.3,0.5,0.3c0.1,0,0.2,0,0.4-0.1
			c0.3-0.2,0.4-0.6,0.2-0.9l-2.6-4C5.5,6,5.1,5.9,4.8,6.1C4.5,6.3,4.5,6.7,4.7,7L7.2,11z"/>
	</g>
</g>
</svg>
