<?xml version="1.0" encoding="utf-8"?>
<!-- Generator: Adobe Illustrator 21.1.0, SVG Export Plug-In . SVG Version: 6.00 Build 0)  -->
<svg version="1.1" id="图层_1" xmlns="http://www.w3.org/2000/svg" xmlns:xlink="http://www.w3.org/1999/xlink" x="0px" y="0px"
	 viewBox="0 0 200 165.2" style="enable-background:new 0 0 200 165.2;" xml:space="preserve">
<style type="text/css">
	.st0{fill:#FFFFFF;}
</style>
<g>
	<path class="st0" d="M100,0C44.9,0,0,44.9,0,100c0,17.6,5.9,34.1,16.7,46.3c10.8,12.2,25.2,19,40.7,19c15.9,0,31.5-7.2,45.2-20.8
		l0.4-0.5c12.8-15.9,26-23.6,40.1-23.6c9.1,0,17.4,3.1,24.7,5.8c5.9,2.2,11.1,4.1,15.9,4.1c16.4,0,16.4-21.2,16.4-30.3
		C200,44.9,155.1,0,100,0z M183.6,117.8c-2.6,0-6.9-1.6-11.5-3.3c-7.9-3-17.7-6.6-29.1-6.6c-18,0-34.2,9.2-49.6,28
		c-11.2,11.1-23.6,16.9-36.1,16.9c-11.8,0-22.9-5.2-31.3-14.7c-8.7-9.9-13.5-23.4-13.5-38c0-48.2,39.2-87.5,87.5-87.5
		s87.5,39.3,87.5,87.5C187.5,105.3,187.1,117.8,183.6,117.8z M143.9,82c0,6.9,5.6,12.5,12.5,12.5s12.5-5.6,12.5-12.5
		s-5.6-12.5-12.5-12.5S143.9,75.1,143.9,82z M76.8,42.5c0,6.9,5.6,12.5,12.5,12.5s12.5-5.6,12.5-12.5S96.2,30,89.3,30
		S76.8,35.6,76.8,42.5z M118.9,47.7c0,6.9,5.6,12.5,12.5,12.5s12.5-5.6,12.5-12.5s-5.6-12.5-12.5-12.5S118.9,40.8,118.9,47.7z
		 M44.4,69.5C44.4,76.4,50,82,56.9,82s12.5-5.6,12.5-12.5c0-6.9-5.6-12.5-12.5-12.5S44.4,62.6,44.4,69.5z M35.6,117.7
		c0,10.4,8.4,18.8,18.8,18.8s18.8-8.4,18.8-18.8c0-10.4-8.4-18.8-18.8-18.8S35.6,107.4,35.6,117.7z"/>
</g>
</svg>
