<?xml version="1.0" encoding="utf-8"?>
<!-- Generator: Adobe Illustrator 21.1.0, SVG Export Plug-In . SVG Version: 6.00 Build 0)  -->
<svg version="1.1" id="图层_1" xmlns="http://www.w3.org/2000/svg" xmlns:xlink="http://www.w3.org/1999/xlink" x="0px" y="0px"
	 viewBox="0 0 146.9 148.4" style="enable-background:new 0 0 146.9 148.4;" xml:space="preserve">
<style type="text/css">
	.st0{fill:#1890FF;}
</style>
<g>
	<path class="st0" d="M73.4,18c-31.1,0-56.2,25.2-56.2,56.2s25.2,56.2,56.2,56.2s56.2-25.2,56.2-56.2S104.5,18,73.4,18z M4.7,74.2
		c0-38,30.8-68.8,68.8-68.8s68.8,30.8,68.8,68.8S111.4,143,73.4,143S4.7,112.2,4.7,74.2z"/>
	<path class="st0" d="M73.4,63.3c-6.9,0-12.5,5.6-12.5,12.5c0,6.9,5.6,12.5,12.5,12.5c6.9,0,12.5-5.6,12.5-12.5
		C85.9,68.9,80.3,63.3,73.4,63.3z M48.4,75.8c0-13.8,11.2-25,25-25s25,11.2,25,25s-11.2,25-25,25S48.4,89.6,48.4,75.8z M35.9,75.8
		c0,3.5-2.8,6.2-6.2,6.2H6.2C2.8,82,0,79.2,0,75.8c0-3.5,2.8-6.2,6.2-6.2h23.4C33.1,69.5,35.9,72.3,35.9,75.8z M146.9,74.2
		c0,3.5-2.8,6.2-6.2,6.2h-23.4c-3.5,0-6.2-2.8-6.2-6.2c0-3.5,2.8-6.2,6.2-6.2h23.4C144.1,68,146.9,70.8,146.9,74.2z M72.7,35.9
		c-3.5,0-6.2-2.8-6.2-6.2V6.2c0-3.5,2.8-6.2,6.2-6.2c3.5,0,6.2,2.8,6.2,6.2v23.4C78.9,33.1,76.1,35.9,72.7,35.9z M72.7,148.4
		c-3.5,0-6.2-2.8-6.2-6.2v-23.4c0-3.5,2.8-6.2,6.2-6.2c3.5,0,6.2,2.8,6.2,6.2v23.4C78.9,145.6,76.1,148.4,72.7,148.4z"/>
</g>
</svg>
