<?xml version="1.0" standalone="no"?><!DOCTYPE svg PUBLIC "-//W3C//DTD SVG 1.1//EN" "http://www.w3.org/Graphics/SVG/1.1/DTD/svg11.dtd"><svg t="1597394264580" class="icon" viewBox="0 0 1024 1024" version="1.1" xmlns="http://www.w3.org/2000/svg" p-id="15369" xmlns:xlink="http://www.w3.org/1999/xlink" width="128" height="128"><defs><style type="text/css"></style></defs><path d="M1005.714286 1005.714286H18.285714V18.285714h712.594286L877.714286 164.571429l128 128v713.142857z" fill="#BBCADC" p-id="15370"></path><path d="M1024 1024H0V0h738.377143L1024 285.074286zM36.571429 987.428571h950.857142V300.068571L723.382857 36.571429H36.571429z" fill="#97ABC1" p-id="15371"></path><path d="M731.428571 0v292.571429h292.571429L731.428571 0z" fill="#97ABC1" p-id="15372"></path><path d="M378.88 408.868571a138.605714 138.605714 0 0 1 28.708571-45.714285 128 128 0 0 1 44.434286-29.988572 148.48 148.48 0 0 1 58.148572-10.971428 182.857143 182.857143 0 0 1 69.485714 11.52 130.925714 130.925714 0 0 1 44.617143 28.342857 100.022857 100.022857 0 0 1 24.32 36.571428 103.131429 103.131429 0 0 1 7.314285 36.571429 123.977143 123.977143 0 0 1-7.314285 46.262857 108.434286 108.434286 0 0 1-18.285715 30.902857 117.76 117.76 0 0 1-23.954285 21.942857c-8.777143 6.034286-17.188571 12.068571-24.868572 18.285715a111.542857 111.542857 0 0 0-20.845714 20.662857 59.062857 59.062857 0 0 0-11.337143 29.257143v22.308571h-78.811428v-26.331428a115.017143 115.017143 0 0 1 27.977142-71.131429 148.114286 148.114286 0 0 1 22.308572-20.845714c7.862857-5.851429 14.994286-11.702857 21.577143-18.285715a74.971429 74.971429 0 0 0 16.091428-18.285714 47.725714 47.725714 0 0 0 5.668572-26.331428 53.76 53.76 0 0 0-13.165715-39.862858 50.102857 50.102857 0 0 0-36.571428-12.8 57.6 57.6 0 0 0-27.245714 6.034286 54.857143 54.857143 0 0 0-18.285715 16.457143 70.217143 70.217143 0 0 0-10.971428 23.954286 126.537143 126.537143 0 0 0-3.474286 29.622857h-85.942857a168.411429 168.411429 0 0 1 10.422857-58.148572z m175.177143 251.062858V749.714286h-91.428572v-89.782857z" fill="#FFFFFF" p-id="15373"></path></svg>