<?xml version="1.0" encoding="utf-8"?>
<!-- Generator: Adobe Illustrator 21.1.0, SVG Export Plug-In . SVG Version: 6.00 Build 0)  -->
<svg version="1.1" id="图层_1" xmlns="http://www.w3.org/2000/svg" xmlns:xlink="http://www.w3.org/1999/xlink" x="0px" y="0px"
	 viewBox="0 0 54.8 58.8" style="enable-background:new 0 0 54.8 58.8;" xml:space="preserve">
<style type="text/css">
	.st0{fill:#5F5F5F;}
</style>
<g>
	<path class="st0" d="M40.9,27.9c-7.6,0-13.8,6.2-13.8,13.8s6.2,13.8,13.8,13.8c7.6,0,13.8-6.2,13.8-13.8S48.5,27.9,40.9,27.9z
		 M40.9,51.9c-5.5,0-10.1-4.6-10.1-10.1c0-5.5,4.6-10.1,10.1-10.1c5.5,0,10.1,4.6,10.1,10.1S46.5,51.9,40.9,51.9z"/>
	<path class="st0" d="M27.3,55H7.9l-0.3,0c-2.2-0.1-3.9-1.9-3.9-4.1V22.6l50.9,0V12l0-0.3c-0.2-4.2-3.6-7.5-7.9-7.5H43V1.9
		c0-1-0.8-1.9-1.9-1.9c-1,0-1.9,0.8-1.9,1.9v2.2H16.1V1.9c0-1-0.8-1.9-1.9-1.9c-1,0-1.9,0.8-1.9,1.9v2.2H7.9l-0.3,0
		C3.3,4.3,0,7.8,0,12v38.9l0,0.3c0.2,4.2,3.6,7.5,7.9,7.5h19.5l0.2,0c1-0.1,1.7-0.9,1.7-1.9C29.2,55.8,28.4,55,27.3,55z M3.7,12
		l0-0.3c0.1-2.2,1.9-3.9,4.1-3.9h4.5v2.2c0,1,0.8,1.9,1.9,1.9c1,0,1.9-0.8,1.9-1.9V7.9h23.2v2.2c0,1,0.8,1.9,1.9,1.9
		c1,0,1.9-0.8,1.9-1.9V7.9h3.7l0.3,0c2.2,0.1,3.9,1.9,3.9,4.1v7H3.7V12z"/>
	<path class="st0" d="M19.5,41.9H9.7c-1,0-1.9,0.8-1.9,1.9c0,1,0.8,1.9,1.9,1.9h9.7c1,0,1.9-0.8,1.9-1.9
		C21.3,42.7,20.5,41.9,19.5,41.9z"/>
	<path class="st0" d="M19.5,31.4H9.7c-1,0-1.9,0.8-1.9,1.9c0,1,0.8,1.9,1.9,1.9h9.7c1,0,1.9-0.8,1.9-1.9
		C21.3,32.3,20.5,31.4,19.5,31.4z"/>
	<path class="st0" d="M45.9,44.7L43,41.9l2.8-2.8c0.6-0.6,0.6-1.5,0-2.1c-0.6-0.6-1.5-0.6-2.1,0L41,39.8L38.2,37c0,0,0,0,0,0
		c-0.6-0.6-1.5-0.6-2.1,0c-0.6,0.6-0.6,1.5,0,2.1l2.8,2.8l-2.8,2.8c-0.6,0.6-0.5,1.5,0,2.1c0.6,0.6,1.5,0.6,2.1,0l2.8-2.8l2.8,2.8
		c0.6,0.6,1.5,0.6,2.1,0l0,0C46.5,46.2,46.5,45.3,45.9,44.7z"/>
</g>
</svg>
