<?xml version="1.0" encoding="utf-8"?>
<!-- Generator: Adobe Illustrator 21.1.0, SVG Export Plug-In . SVG Version: 6.00 Build 0)  -->
<svg version="1.1" id="图层_1" xmlns="http://www.w3.org/2000/svg" xmlns:xlink="http://www.w3.org/1999/xlink" x="0px" y="0px"
	 viewBox="0 0 162.5 129.2" style="enable-background:new 0 0 162.5 129.2;" xml:space="preserve">
<style type="text/css">
	.st0{fill:#A0C8FF;}
</style>
<g>
	<path class="st0" d="M21.2,129.2C9.5,129.2,0,119.6,0,107.9v0V21.2C0,9.5,9.5,0,21.2,0h120c11.7,0,21.2,9.5,21.2,21.2v86.7
		c0,11.7-9.5,21.2-21.2,21.2L21.2,129.2L21.2,129.2z M21.2,116.7h120c4.8,0,8.8-3.9,8.8-8.8V21.3c0-4.8-3.9-8.8-8.8-8.8h-120
		c-4.8,0-8.8,3.9-8.8,8.8l0,0v86.7C12.5,112.8,16.4,116.7,21.2,116.7z"/>
	<path class="st0" d="M8.5,40.2c-3.1-1.5-4.4-5.3-2.9-8.4s5.3-4.4,8.4-2.9l0,0l65.6,32c1,0.5,2.2,0.5,3.3,0l65.6-32
		c3.1-1.5,6.8-0.2,8.4,2.9c1.5,3.1,0.2,6.8-2.9,8.4l-65.6,32c-4.5,2.2-9.8,2.2-14.3,0L8.5,40.2z"/>
</g>
</svg>
