<?xml version="1.0" encoding="utf-8"?>
<!-- Generator: Adobe Illustrator 21.1.0, SVG Export Plug-In . SVG Version: 6.00 Build 0)  -->
<svg version="1.1" id="图层_1" xmlns="http://www.w3.org/2000/svg" xmlns:xlink="http://www.w3.org/1999/xlink" x="0px" y="0px"
	 viewBox="0 0 186.6 200" style="enable-background:new 0 0 186.6 200;" xml:space="preserve">
<style type="text/css">
	.st0{fill:#A0C8FF;}
</style>
<g>
	<path class="st0" d="M93.3,113.3C62,113.3,36.7,88,36.7,56.7c0-15,6-29.4,16.6-40c22.1-22.1,58-22.2,80.1-0.1
		c7.1,7,12.1,15.8,14.7,25.5c5.2,19.6-0.4,40.4-14.7,54.7C122.8,107.4,108.3,113.4,93.3,113.3z M93.3,13.4
		C69.4,13.4,50,32.8,50,56.7S69.4,100,93.3,100c23.9,0,43.3-19.4,43.3-43.3S117.2,13.4,93.3,13.4z"/>
	<path class="st0" d="M179.9,200c-3.7,0-6.7-3-6.7-6.7l0,0c0-44.2-35.8-80-80-80c-44.2,0-80,35.8-80,80c0,0,0,0,0,0
		c0,3.7-3,6.7-6.7,6.7C3,200,0,197,0,193.3c0-44.4,31.3-82.6,74.8-91.4c43.5-8.8,87.2,14.2,104.5,55.1c4.9,11.5,7.4,23.8,7.3,36.3
		C186.6,197,183.6,200,179.9,200L179.9,200z"/>
</g>
</svg>
