<?xml version="1.0" encoding="utf-8"?>
<!-- Generator: Adobe Illustrator 21.1.0, SVG Export Plug-In . SVG Version: 6.00 Build 0)  -->
<svg version="1.1" id="图层_1" xmlns="http://www.w3.org/2000/svg" xmlns:xlink="http://www.w3.org/1999/xlink" x="0px" y="0px"
	 viewBox="0 0 161.9 159.9" style="enable-background:new 0 0 161.9 159.9;" xml:space="preserve">
<style type="text/css">
	.st0{fill:#A0C8FF;}
	.st1{opacity:0.5;fill:#A0C8FF;enable-background:new    ;}
</style>
<g>
	<path class="st0" d="M107.1,159.9c-15.6,0-43.4-4.8-73.8-39.1C-3.1,79.6-2,44.5,1.9,27.2c1.8-8.1,8.1-15.5,16.7-19.7
		c7.4-3.6,15.2-4.3,20.8-1.7C57.5,14.3,58,42.2,55.2,51.4c-1.9,6.2-8.1,12.1-11.9,15.4c10.4,23.8,32.8,40.3,40.3,44.9
		c0.2-0.2,0.4-0.4,0.5-0.5c2.8-3.1,7.1-7.7,14-9.8c8.5-2.5,24.9,0,34.9,7.7c6.4,4.9,9.6,11.4,9.5,18.8
		c-0.7,25.4-16.7,30.7-26.1,31.5C114.2,159.6,111,159.9,107.1,159.9L107.1,159.9z M11.7,29.5C8.9,41.8,6.2,74.8,41,114.2
		c34.5,39,63.5,36.2,74.4,35.2c11.1-1.1,16.6-8.2,17-21.8c0.1-4.1-1.7-7.6-5.5-10.5c-8-6.2-21.3-7.4-25.9-6.1
		c-4.2,1.3-7.1,4.4-9.5,6.9c-2.3,2.5-5.4,5.9-9.7,4.2c-4-1.6-37-22.3-49.3-55.2c-0.8-2.1-0.1-4.5,1.7-5.8c3.7-2.8,10-8.7,11.3-12.8
		C47.5,42,47,20.5,35,15c-2.8-1.3-7.5-0.7-12.1,1.6C17.1,19.5,12.9,24.3,11.7,29.5L11.7,29.5z"/>
	<path class="st1" d="M121.3,89.6c-0.4,0-0.8-0.1-1.3-0.2c-2.7-0.7-4.3-3.5-3.6-6.2c1.5-5.9,1.3-12.1-0.8-17.9
		c-2.7-7.7-8.3-13.9-15.7-17.4c-7.4-3.5-15.7-4-23.4-1.2c-2.6,0.9-5.5-0.4-6.4-3.1c-0.9-2.6,0.4-5.5,3.1-6.4
		c10.3-3.6,21.3-3,31.1,1.6s17.2,12.9,20.8,23.2c2.7,7.7,3.1,15.9,1,23.8C125.6,88.1,123.5,89.6,121.3,89.6z"/>
	<path class="st1" d="M155,81.8c-0.4,0-0.8-0.1-1.3-0.2c-2.7-0.7-4.3-3.5-3.6-6.2c2.6-10.1,2.2-20.6-1.3-30.5
		c-9.6-27.1-39.5-41.4-66.7-31.8c-2.6,0.9-5.5-0.4-6.4-3.1c-0.9-2.6,0.4-5.5,3.1-6.4c32.4-11.5,68.1,5.6,79.6,38
		c4.2,11.8,4.7,24.4,1.6,36.4C159.3,80.3,157.2,81.8,155,81.8L155,81.8z"/>
</g>
</svg>
