<?xml version="1.0" encoding="utf-8"?>
<!-- Generator: Adobe Illustrator 21.1.0, SVG Export Plug-In . SVG Version: 6.00 Build 0)  -->
<svg version="1.1" id="图层_1" xmlns="http://www.w3.org/2000/svg" xmlns:xlink="http://www.w3.org/1999/xlink" x="0px" y="0px"
	 viewBox="0 0 188.8 157.9" style="enable-background:new 0 0 188.8 157.9;" xml:space="preserve">
<style type="text/css">
	.st0{fill:#A0C8FF;}
</style>
<g>
	<path class="st0" d="M100,50c0-27.9-22.5-50-50-50S0,22.5,0,50c0,25.8,19.6,47.1,44.6,50v12.9H23.8c-3.3,0-5.8,2.5-5.8,5.8
		c0,3.3,2.5,5.4,5.8,5.4h20.8v24.2c0,3.3,2.5,5.8,5.8,5.8s5.8-2.5,5.8-5.8v-24.2h20.8c3.3,0,5.8-2.5,5.8-5.8c0-3.3-2.5-5.8-5.8-5.8
		H56.3V99.6C80.8,96.7,100,75.4,100,50z M11.3,50c0-21.2,17.5-38.8,38.8-38.8S88.8,28.8,88.8,50S71.2,88.8,50,88.8
		S11.3,71.2,11.3,50z"/>
	<path class="st0" d="M144.6,58.3V22.9L161.7,40c2.1,2.1,5.8,2.1,8.3,0c2.1-2.1,2.1-5.8,0-8.3L142.9,4.6c-0.8-0.4-1.3-0.8-2.1-1.3
		s-1.2-0.4-2.1-0.4c-0.8,0-1.3,0-2.1,0.4s-1.2,0.8-1.7,1.3l-27.5,27.1c-2.1,2.1-2.1,5.8,0,8.3c2.1,2.1,5.8,2.1,8.3,0l17.1-17.1v35
		c-25,2.9-44.2,24.2-44.2,50c0,27.9,22.5,50,50,50s50-22.5,50-50C188.8,82.5,169.6,61.2,144.6,58.3L144.6,58.3z M138.8,146.7
		c-21.2,0-38.8-17.5-38.8-38.8c0-21.2,17.5-38.8,38.8-38.8s38.8,17.5,38.8,38.8C177.5,129.6,160,146.7,138.8,146.7z"/>
</g>
</svg>
