<?xml version="1.0" encoding="utf-8"?>
<!-- Generator: Adobe Illustrator 21.1.0, SVG Export Plug-In . SVG Version: 6.00 Build 0)  -->
<svg version="1.1" id="图层_1" xmlns="http://www.w3.org/2000/svg" xmlns:xlink="http://www.w3.org/1999/xlink" x="0px" y="0px"
	 viewBox="0 0 80.8 59.9" style="enable-background:new 0 0 80.8 59.9;" xml:space="preserve">
<style type="text/css">
	.st0{fill:#5F5F5F;}
</style>
<g>
	<g>
		<g>
			<path class="st0" d="M69.8,0c-6.1,0-11,4.9-11,11.1c0,3.5,1.6,6.6,4,8.6c-1.1,3.5-5.1,9.5-23.3,9.1c-12.8-0.4-22,2.7-27.8,8.9
				c-0.2,0-0.5,0-0.7,0c-6.1,0-11,4.9-11,11.1C0,55,4.8,59.9,11,59.9c6.1,0,11-4.9,11-11.1c0-3.7-1.7-6.8-4.3-8.9
				c4.9-3.9,12-5.7,21.9-5.3c15.6,0.4,25.4-4,28.6-12.6c0.5,0.1,1.1,0.1,1.6,0.1c5.7,0,11-4.9,11-11.1C80.8,4.9,75.9,0,69.8,0z
				 M11,54.2c-3.1,0-5.3-2.2-5.3-5.3s2.2-5.3,5.3-5.3c3.1,0,5.3,2.2,5.3,5.3S14,54.2,11,54.2z M69.8,16.4c-3.1,0-5.3-2.2-5.3-5.3
				c0-3.1,2.2-5.3,5.3-5.3c2.6,0,5.3,2.2,5.3,5.3C75,14.2,72.9,16.4,69.8,16.4z"/>
		</g>
	</g>
</g>
</svg>
