<?xml version="1.0" encoding="utf-8"?>
<!-- Generator: Adobe Illustrator 21.1.0, SVG Export Plug-In . SVG Version: 6.00 Build 0)  -->
<svg version="1.1" id="图层_1" xmlns="http://www.w3.org/2000/svg" xmlns:xlink="http://www.w3.org/1999/xlink" x="0px" y="0px"
	 viewBox="0 0 25.1 24.9" style="enable-background:new 0 0 25.1 24.9;" xml:space="preserve">
<style type="text/css">
	.st0{fill:#5F5F5F;}
</style>
<path class="st0" d="M24.3,5.8c0.4,0,0.8-0.4,0.8-0.8V0.8c0-0.4-0.4-0.8-0.8-0.8H20c-0.4,0-0.8,0.4-0.8,0.8v1.3h-2.6
	c-0.1,0-0.2,0-0.3,0H5.9V0.8C5.9,0.3,5.5,0,5.1,0H0.8C0.4,0,0,0.4,0,0.8V5c0,0.4,0.4,0.8,0.8,0.8h1.3v13.3H0.8
	c-0.4,0-0.8,0.4-0.8,0.8v4.2c0,0.4,0.4,0.8,0.8,0.8h4.3c0.4,0,0.8-0.4,0.8-0.8v-1.3h13.4v1.3c0,0.4,0.4,0.8,0.8,0.8h4.3
	c0.4,0,0.8-0.4,0.8-0.8v-4.2c0-0.4-0.4-0.8-0.8-0.8H23V8.5V8.4V5.8H24.3L24.3,5.8L24.3,5.8z M3.7,10.8c0.1,0-0.2,0.9-0.1,0.9l8-7.9
	h3L3.7,14.4V10.8L3.7,10.8z M5.1,5.8c0.4,0,0.8-0.3,0.8-0.8l0,0V3.7h3.4L3.7,9.2V5.8H5.1L5.1,5.8L5.1,5.8z M3.7,16.7l13.1-13h2.4v1
	L4.7,19.1h-1L3.7,16.7L3.7,16.7L3.7,16.7z M21.4,13.3L13.6,21c-0.1,0.1-0.1,0.1-0.1,0.2h-3l10.8-10.8v2.9H21.4z M20,19.1
	c-0.4,0-0.8,0.4-0.8,0.8v1.3h-3.5l5.6-5.6v3.5L20,19.1L20,19.1L20,19.1z M21.4,8.2l-13.1,13H5.9v-1L20.4,5.8h1V8.2L21.4,8.2
	L21.4,8.2z"/>
</svg>
